# xmcd
#
# Track frame offsets:
# 150
# 20290
# 39287
# 54845
# 71830
# 88657
# 107355
# 128350
# 147150
# 167837
# 189200
# 208790
# 226975
# 245320
# 265857
#
# Disc length: 3830 seconds
#
#
# Revision: 2
# Processed by: cddbd v1.5.1PL0 Copyright (c) Steve Scherf et al.
# Submitted via: FreeRIP 2.942 
#
DISCID=ba0ef40f
DTITLE=Só Pra Contrariar - SPC
DYEAR=1900
DGENRE=Other
TTITLE0=Depois Do Prazer
TTITLE1=Ta Por Fora
TTITLE2=Mineirinho
TTITLE3=Quando e' o Amor
TTITLE4=Minha Metade
TTITLE5=Doido Varrido
TTITLE6=Voce de Volta
TTITLE7=Tem Tudo a Ver
TTITLE8=Artilheiro do Amor
TTITLE9=Amor Verdadeiro
TTITLE10=Misterios do Coração
TTITLE11=Pura Verdade
TTITLE12=Cai na Real
TTITLE13=Menina Mulher
TTITLE14=Nosso Amor
EXTD=
EXTT0=
EXTT1=
EXTT2=
EXTT3=
EXTT4=
EXTT5=
EXTT6=
EXTT7=
EXTT8=
EXTT9=
EXTT10=
EXTT11=
EXTT12=
EXTT13=
EXTT14=
PLAYORDER=
